<?xml version="1.0" encoding="utf-8"?>
<!-- Generator: Adobe Illustrator 19.2.0, SVG Export Plug-In . SVG Version: 6.00 Build 0)  -->
<svg version="1.1" xmlns="http://www.w3.org/2000/svg" xmlns:xlink="http://www.w3.org/1999/xlink" x="0px" y="0px"
	 viewBox="0 0 1214 941" style="enable-background:new 0 0 1214 941;" xml:space="preserve">
<style type="text/css">
	.st0{opacity:0.2;fill:#4E768D;}
	.st1{fill:#52B1DB;}
	.st2{fill:#FFFFFF;}
	.st3{fill:#7A98A9;}
	.st4{fill:#D7F6F0;}
	.st5{fill:#B0EDE1;}
	.st6{fill:#88E3D2;}
	.st7{fill:#61DAC3;}
	.st8{fill:#39D1B4;}
	.st9{fill:#37C2AA;}
	.st10{fill:#34B3A0;}
	.st11{fill:#1A7B72;}
	.st12{fill:#004444;}
	.st13{fill:#FBBDBD;}
	.st14{fill:#FA9C9D;}
	.st15{fill:#F87B7C;}
	.st16{fill:#F65A5B;}
	.st17{fill:#C64748;}
	.st18{fill:#963435;}
	.st19{fill:#652022;}
	.st20{fill:#350D0F;}
	.st21{fill:#BAE0F1;}
	.st22{fill:#97D0E9;}
	.st23{fill:#75C1E2;}
	.st24{fill:#4292B4;}
	.st25{fill:#32728D;}
	.st26{fill:#215366;}
	.st27{fill:#11333F;}
	.st28{fill:#FDDEDE;}
	.st29{fill:#DCEFF8;}
	.st30{fill:#A7BBC6;}
	.st31{fill:#4E768D;}
	.st32{fill:#225470;}
	.st33{fill:#214A63;}
	.st34{fill:#204056;}
	.st35{fill:#163142;}
	.st36{fill:#0D222D;}
	.st37{fill:#D3DDE2;}
	.st38{fill:none;stroke:#4E768D;stroke-miterlimit:10;}
	.st39{opacity:0.5;fill:#4E768D;}
	.st40{opacity:0.25;fill:#4E768D;}
</style>
<g id="BG">
</g>
<g id="CONTENTS">
	<rect x="356" y="370" class="st0" width="500" height="200"/>
	<rect x="406" y="420" class="st0" width="400" height="100"/>
	<g>
		<path class="st31" d="M944,270h-6v1h6V270L944,270z M932,270h-6v1h6V270L932,270z M920,270h-6v1h6V270L920,270z M908,270h-6v1h6
			V270L908,270z M896,270h-6v1h6V270L896,270z M884,270h-6v1h6V270L884,270z M872,270h-6v1h6V270L872,270z M860,270h-6v1h6V270
			L860,270z M848,270h-6v1h6V270L848,270z M836,270h-6v1h6V270L836,270z M824,270h-6v1h6V270L824,270z M812,270h-6v1h6V270L812,270z
			 M800,270h-6v1h6V270L800,270z M788,270h-6v1h6V270L788,270z M776,270h-6v1h6V270L776,270z M764,270h-6v1h6V270L764,270z M752,270
			h-6v1h6V270L752,270z M740,270h-6v1h6V270L740,270z M728,270h-6v1h6V270L728,270z M716,270h-6v1h6V270L716,270z M704,270h-6v1h6
			V270L704,270z M692,270h-6v1h6V270L692,270z M680,270h-6v1h6V270L680,270z M668,270h-6v1h6V270L668,270z M656,270h-6v1h6V270
			L656,270z M644,270h-6v1h6V270L644,270z M632,270h-6v1h6V270L632,270z M620,270h-6v1h6V270L620,270z M608,270h-6v1h6V270L608,270z
			 M596,270h-6v1h6V270L596,270z M584,270h-6v1h6V270L584,270z M572,270h-6v1h6V270L572,270z M560,270h-6v1h6V270L560,270z M548,270
			h-6v1h6V270L548,270z M536,270h-6v1h6V270L536,270z M524,270h-6v1h6V270L524,270z M512,270h-6v1h6V270L512,270z M500,270h-6v1h6
			V270L500,270z M488,270h-6v1h6V270L488,270z M476,270h-6v1h6V270L476,270z M464,270h-6v1h6V270L464,270z M452,270h-6v1h6V270
			L452,270z M440,270h-6v1h6V270L440,270z M428,270h-6v1h6V270L428,270z M416,270h-6v1h6V270L416,270z M404,270h-6v1h6V270L404,270z
			 M392,270h-6v1h6V270L392,270z M380,270h-6v1h6V270L380,270z M368,270h-6v1h6V270L368,270z M356,270h-6v1h6V270L356,270z M344,270
			h-6v1h6V270L344,270z M332,270h-6v1h6V270L332,270z M320,270h-6v1h6V270L320,270z M308,270h-6v1h6V270L308,270z M296,270h-6v1h6
			V270L296,270z M284,270h-6v1h6V270L284,270z M272,270h-6v1h6V270L272,270z M260,270h-4v1l0,0c0,0.5,0,1,0,1h1v-1h3V270L260,270z
			 M257,278h-1v6h1V278L257,278z M257,290h-1v6h1V290L257,290z M257,302h-1v6h1V302L257,302z M257,314h-1v6h1V314L257,314z M257,326
			h-1v6h1V326L257,326z M257,338h-1v6h1V338L257,338z M257,350h-1v6h1V350L257,350z M257,362h-1v6h1V362L257,362z M257,374h-1v6h1
			V374L257,374z M257,386h-1v6h1V386L257,386z M257,398h-1v6h1V398L257,398z M257,410h-1v6h1V410L257,410z M257,422h-1v6h1V422
			L257,422z M257,434h-1v6h1V434L257,434z M257,446h-1v6h1V446L257,446z M257,458h-1v6h1V458L257,458z M257,470h-1v6h1V470L257,470z
			 M257,482h-1v6h1V482L257,482z M257,494h-1v6h1V494L257,494z M257,506h-1v6h1V506L257,506z M257,518h-1v6h1V518L257,518z M257,530
			h-1v6h1V530L257,530z M257,542h-1v6h1V542L257,542z M257,554h-1v6h1V554L257,554z M257,566h-1v6h1V566L257,566z M257,578h-1v6h1
			V578L257,578z M257,590h-1v6h1V590L257,590z M257,602h-1v6h1V602L257,602z M257,614h-1v6h1V614L257,614z M257,626h-1v6h1V626
			L257,626z M257,638h-1v6h1V638L257,638z M257,650h-1v6h1V650L257,650z M257,662h-1v6h1V662L257,662z M266,669h-6v1h6V669L266,669z
			 M278,669h-6v1h6V669L278,669z M290,669h-6v1h6V669L290,669z M302,669h-6v1h6V669L302,669z M314,669h-6v1h6V669L314,669z M326,669
			h-6v1h6V669L326,669z M338,669h-6v1h6V669L338,669z M350,669h-6v1h6V669L350,669z M362,669h-6v1h6V669L362,669z M374,669h-6v1h6
			V669L374,669z M386,669h-6v1h6V669L386,669z M398,669h-6v1h6V669L398,669z M410,669h-6v1h6V669L410,669z M422,669h-6v1h6V669
			L422,669z M434,669h-6v1h6V669L434,669z M446,669h-6v1h6V669L446,669z M458,669h-6v1h6V669L458,669z M470,669h-6v1h6V669L470,669z
			 M482,669h-6v1h6V669L482,669z M494,669h-6v1h6V669L494,669z M506,669h-6v1h6V669L506,669z M518,669h-6v1h6V669L518,669z M530,669
			h-6v1h6V669L530,669z M542,669h-6v1h6V669L542,669z M554,669h-6v1h6V669L554,669z M566,669h-6v1h6V669L566,669z M578,669h-6v1h6
			V669L578,669z M590,669h-6v1h6V669L590,669z M602,669h-6v1h6V669L602,669z M614,669h-6v1h6V669L614,669z M626,669h-6v1h6V669
			L626,669z M638,669h-6v1h6V669L638,669z M650,669h-6v1h6V669L650,669z M662,669h-6v1h6V669L662,669z M674,669h-6v1h6V669L674,669z
			 M686,669h-6v1h6V669L686,669z M698,669h-6v1h6V669L698,669z M710,669h-6v1h6V669L710,669z M722,669h-6v1h6V669L722,669z M734,669
			h-6v1h6V669L734,669z M746,669h-6v1h6V669L746,669z M758,669h-6v1h6V669L758,669z M770,669h-6v1h6V669L770,669z M782,669h-6v1h6
			V669L782,669z M794,669h-6v1h6V669L794,669z M806,669h-6v1h6V669L806,669z M818,669h-6v1h6V669L818,669z M830,669h-6v1h6V669
			L830,669z M842,669h-6v1h6V669L842,669z M854,669h-6v1h6V669L854,669z M866,669h-6v1h6V669L866,669z M878,669h-6v1h6V669L878,669z
			 M890,669h-6v1h6V669L890,669z M902,669h-6v1h6V669L902,669z M914,669h-6v1h6V669L914,669z M926,669h-6v1h6V669L926,669z M938,669
			h-6v1h6V669L938,669z M950,669h-6v1h6V669L950,669z M956,664h-1v6h1V664L956,664z M956,652h-1v6h1V652L956,652z M956,640h-1v6h1
			V640L956,640z M956,628h-1v6h1V628L956,628z M956,616h-1v6h1V616L956,616z M956,604h-1v6h1V604L956,604z M956,592h-1v6h1V592
			L956,592z M956,580h-1v6h1V580L956,580z M956,568h-1v6h1V568L956,568z M956,556h-1v6h1V556L956,556z M956,544h-1v6h1V544L956,544z
			 M956,532h-1v6h1V532L956,532z M956,520h-1v6h1V520L956,520z M956,508h-1v6h1V508L956,508z M956,496h-1v6h1V496L956,496z M956,484
			h-1v6h1V484L956,484z M956,472h-1v6h1V472L956,472z M956,460h-1v6h1V460L956,460z M956,448h-1v6h1V448L956,448z M956,436h-1v6h1
			V436L956,436z M956,424h-1v6h1V424L956,424z M956,412h-1v6h1V412L956,412z M956,400h-1v6h1V400L956,400z M956,388h-1v6h1V388
			L956,388z M956,376h-1v6h1V376L956,376z M956,364h-1v6h1V364L956,364z M956,352h-1v6h1V352L956,352z M956,340h-1v6h1V340L956,340z
			 M956,328h-1v6h1V328L956,328z M956,316h-1v6h1V316L956,316z M956,304h-1v6h1V304L956,304z M956,292h-1v6h1V292L956,292z M956,280
			h-1v6h1V280L956,280z M956,270h-6v1h5v3h1V270L956,270z"/>
	</g>
	<g>
		<path class="st31" d="M306,320v300h600V320H306z M856,570H356V370h500V570z"/>
	</g>
	<g>
		<path class="st31" d="M794,420h-6v1h6V420L794,420z M782,420h-6v1h6V420L782,420z M770,420h-6v1h6V420L770,420z M758,420h-6v1h6
			V420L758,420z M746,420h-6v1h6V420L746,420z M734,420h-6v1h6V420L734,420z M722,420h-6v1h6V420L722,420z M710,420h-6v1h6V420
			L710,420z M698,420h-6v1h6V420L698,420z M686,420h-6v1h6V420L686,420z M674,420h-6v1h6V420L674,420z M662,420h-6v1h6V420L662,420z
			 M650,420h-6v1h6V420L650,420z M638,420h-6v1h6V420L638,420z M626,420h-6v1h6V420L626,420z M614,420h-6v1h6V420L614,420z M602,420
			h-6v1h6V420L602,420z M590,420h-6v1h6V420L590,420z M578,420h-6v1h6V420L578,420z M566,420h-6v1h6V420L566,420z M554,420h-6v1h6
			V420L554,420z M542,420h-6v1h6V420L542,420z M530,420h-6v1h6V420L530,420z M518,420h-6v1h6V420L518,420z M506,420h-6v1h6V420
			L506,420z M494,420h-6v1h6V420L494,420z M482,420h-6v1h6V420L482,420z M470,420h-6v1h6V420L470,420z M458,420h-6v1h6V420L458,420z
			 M446,420h-6v1h6V420L446,420z M434,420h-6v1h6V420L434,420z M422,420h-6v1h6V420L422,420z M410,420h-4v1l0,0c0,0.5,0,1,0,1h1v-1
			h3V420L410,420z M407,428h-1v6h1V428L407,428z M407,440h-1v6h1V440L407,440z M407,452h-1v6h1V452L407,452z M407,464h-1v6h1V464
			L407,464z M407,476h-1v6h1V476L407,476z M407,488h-1v6h1V488L407,488z M407,500h-1v6h1V500L407,500z M407,512h-1v6h1V512L407,512z
			 M416,519h-6v1h6V519L416,519z M428,519h-6v1h6V519L428,519z M440,519h-6v1h6V519L440,519z M452,519h-6v1h6V519L452,519z M464,519
			h-6v1h6V519L464,519z M476,519h-6v1h6V519L476,519z M488,519h-6v1h6V519L488,519z M500,519h-6v1h6V519L500,519z M512,519h-6v1h6
			V519L512,519z M524,519h-6v1h6V519L524,519z M536,519h-6v1h6V519L536,519z M548,519h-6v1h6V519L548,519z M560,519h-6v1h6V519
			L560,519z M572,519h-6v1h6V519L572,519z M584,519h-6v1h6V519L584,519z M596,519h-6v1h6V519L596,519z M608,519h-6v1h6V519L608,519z
			 M620,519h-6v1h6V519L620,519z M632,519h-6v1h6V519L632,519z M644,519h-6v1h6V519L644,519z M656,519h-6v1h6V519L656,519z M668,519
			h-6v1h6V519L668,519z M680,519h-6v1h6V519L680,519z M692,519h-6v1h6V519L692,519z M704,519h-6v1h6V519L704,519z M716,519h-6v1h6
			V519L716,519z M728,519h-6v1h6V519L728,519z M740,519h-6v1h6V519L740,519z M752,519h-6v1h6V519L752,519z M764,519h-6v1h6V519
			L764,519z M776,519h-6v1h6V519L776,519z M788,519h-6v1h6V519L788,519z M800,519h-6v1h6V519L800,519z M806,514h-1v6h1V514L806,514z
			 M806,502h-1v6h1V502L806,502z M806,490h-1v6h1V490L806,490z M806,478h-1v6h1V478L806,478z M806,466h-1v6h1V466L806,466z M806,454
			h-1v6h1V454L806,454z M806,442h-1v6h1V442L806,442z M806,430h-1v6h1V430L806,430z M806,420h-6v1h5v3h1V420L806,420z"/>
	</g>
	<g>
		<g>
			<path class="st2" d="M576.4,476.1c-1.1,0-2.1-0.3-3-0.8s-1.5-1.3-1.9-2.2s-0.6-1.9-0.6-3c0-0.8,0.1-1.6,0.4-2.4
				c0.2-0.7,0.6-1.4,1-2c0.4-0.6,1-1,1.7-1.4s1.5-0.5,2.4-0.5c0.6,0,1.1,0.1,1.7,0.2s1,0.3,1.3,0.5l-0.4,1c-0.7-0.4-1.6-0.6-2.6-0.6
				c-1.2,0-2.2,0.5-2.9,1.4c-0.7,0.9-1.1,2.2-1.1,3.7c0,1.5,0.4,2.7,1.1,3.6s1.7,1.4,2.9,1.4c0.9,0,1.8-0.2,2.8-0.6l0.2,1
				c-0.3,0.3-0.8,0.4-1.3,0.6S577,476.1,576.4,476.1z"/>
			<path class="st2" d="M586.6,476.1c-1.1,0-2-0.3-2.8-0.8s-1.4-1.3-1.9-2.2s-0.6-2-0.6-3.1c0-0.9,0.1-1.7,0.4-2.4
				c0.2-0.7,0.6-1.4,1.1-1.9c0.5-0.5,1-1,1.7-1.3c0.7-0.3,1.4-0.5,2.3-0.5c1.1,0,2.1,0.3,2.9,0.8c0.8,0.5,1.4,1.3,1.8,2.2
				s0.6,2,0.6,3.1c0,1.2-0.2,2.2-0.6,3.1c-0.4,0.9-1,1.6-1.9,2.2C588.7,475.8,587.7,476.1,586.6,476.1z M586.7,475
				c0.9,0,1.6-0.2,2.2-0.7s1-1.1,1.3-1.8c0.3-0.7,0.4-1.6,0.4-2.6c0-1.5-0.3-2.7-1-3.7s-1.6-1.4-2.9-1.4c-0.9,0-1.6,0.2-2.2,0.7
				s-1,1.1-1.3,1.8c-0.3,0.7-0.4,1.6-0.4,2.6c0,1.5,0.3,2.7,1,3.6C584.4,474.5,585.4,475,586.7,475z"/>
			<path class="st2" d="M594.6,475.8V464h1.2l0.2,1.8c0.4-0.6,1-1.1,1.7-1.5c0.7-0.4,1.5-0.5,2.3-0.5c1.4,0,2.3,0.4,3,1.1
				c0.6,0.7,1,1.9,1,3.6v7.3h-1.3v-7.9c0-1-0.3-1.8-0.7-2.3c-0.4-0.5-1.1-0.7-2-0.7c-1.1,0-1.9,0.3-2.6,0.8s-1.1,1.2-1.3,2.1
				c0,0.3,0,0.7,0,1.1v6.9H594.6z"/>
			<path class="st2" d="M610.3,476.1c-1,0-1.7-0.2-2.2-0.7c-0.5-0.4-0.7-1.2-0.7-2.2V465h-1.7l0.1-0.8l1.6-0.2l0.4-2.7l0.9-0.1v2.7
				h3.4v1h-3.4v7.9c0,0.8,0.1,1.4,0.4,1.7c0.3,0.3,0.8,0.4,1.4,0.4c0.4,0,1-0.1,1.7-0.2l0.1,1C611.5,476,610.8,476.1,610.3,476.1z"
				/>
			<path class="st2" d="M619,476.1c-1.6,0-2.9-0.5-3.9-1.6c-1-1.1-1.4-2.6-1.4-4.4c0-1.8,0.5-3.3,1.4-4.4c0.9-1.1,2.1-1.7,3.6-1.8
				c1.4,0,2.5,0.5,3.3,1.5s1.3,2.3,1.3,4c0,0.1,0,0.2,0,0.4c0,0.2,0,0.3,0,0.4h-8.2c0,1.5,0.4,2.7,1.1,3.6c0.7,0.9,1.7,1.3,2.8,1.3
				c0.8,0,1.4-0.1,2-0.3c0.6-0.2,1.2-0.4,1.8-0.8l0.2,1C621.9,475.7,620.5,476.1,619,476.1z M615.2,469h6.7c0-1.3-0.3-2.3-0.8-3
				c-0.6-0.7-1.3-1-2.3-1c-1,0-1.8,0.4-2.4,1.1C615.7,466.8,615.3,467.8,615.2,469z"/>
			<path class="st2" d="M626,475.8V464h1.2l0.2,1.8c0.4-0.6,1-1.1,1.7-1.5c0.7-0.4,1.5-0.5,2.3-0.5c1.4,0,2.3,0.4,3,1.1
				c0.6,0.7,1,1.9,1,3.6v7.3H634v-7.9c0-1-0.3-1.8-0.7-2.3c-0.4-0.5-1.1-0.7-2-0.7c-1.1,0-1.9,0.3-2.6,0.8s-1.1,1.2-1.3,2.1
				c0,0.3,0,0.7,0,1.1v6.9H626z"/>
			<path class="st2" d="M641.7,476.1c-1,0-1.7-0.2-2.2-0.7c-0.5-0.4-0.7-1.2-0.7-2.2V465h-1.7l0.1-0.8l1.6-0.2l0.4-2.7l0.9-0.1v2.7
				h3.4v1h-3.4v7.9c0,0.8,0.1,1.4,0.4,1.7c0.3,0.3,0.8,0.4,1.4,0.4c0.4,0,1-0.1,1.7-0.2l0.1,1C642.8,476,642.2,476.1,641.7,476.1z"
				/>
		</g>
	</g>
	<g>
		<g>
			<path class="st3" d="M567.8,402.1c-0.8,0-1.4-0.2-2-0.5s-1-0.8-1.3-1.4v6.1l-2,0.2V390h2v1.6c0.3-0.6,0.8-1.1,1.4-1.4
				s1.2-0.5,1.9-0.5c1.9,0,3.3,0.8,4.1,2.4c0.5,1,0.8,2.2,0.8,3.6c0,2.2-0.5,3.9-1.6,5.1C570.3,401.7,569.2,402.1,567.8,402.1z
				 M564.4,395.9c0,3.2,1.1,4.7,3.3,4.7c2,0,3-1.6,3-4.7c0-1.7-0.3-3-0.8-3.6c-0.5-0.7-1.3-1-2.2-1c-1.8,0-2.9,1.1-3.2,3.2
				C564.5,394.8,564.4,395.3,564.4,395.9z"/>
			<path class="st3" d="M583.1,393.7c0-1.7-0.7-2.5-2.1-2.5c-0.7,0-1.4,0.1-2.2,0.2c-0.8,0.2-1.4,0.3-1.7,0.5l-0.5-1.4
				c1.5-0.5,2.9-0.7,4.2-0.7s2.3,0.3,3.1,0.9c0.8,0.6,1.2,1.5,1.2,2.8v8.5h-1.6l-0.3-1.4c-0.5,0.5-1,0.9-1.8,1.2s-1.4,0.5-2.1,0.5
				c-1,0-1.8-0.3-2.5-0.9c-0.7-0.6-1-1.4-1-2.5c0-1.1,0.4-1.9,1.3-2.4c0.6-0.4,1.2-0.6,1.9-0.7c0.7-0.1,1.5-0.3,2.6-0.4l1.6-0.2
				V393.7z M583.1,399.2v-3l-1.6,0.2c-1.1,0.2-1.9,0.3-2.3,0.5c-1,0.4-1.4,1-1.4,1.8c0,0.6,0.2,1.1,0.5,1.4c0.3,0.4,0.8,0.5,1.4,0.5
				C581,400.7,582.2,400.2,583.1,399.2z"/>
			<path class="st3" d="M596.6,391.7v-6.4l2-0.2v16.8h-2V400c-0.8,1.4-1.9,2.1-3.4,2.1c-1.7,0-2.9-0.6-3.6-1.8
				c-0.8-1.2-1.1-2.7-1.1-4.5c0-2.2,0.6-3.8,1.7-4.9c0.8-0.8,1.8-1.2,3.1-1.2c0.9,0,1.6,0.2,2.2,0.5
				C596,390.6,596.4,391.1,596.6,391.7z M596.6,395.9c0-1.8-0.3-3.1-0.8-3.7c-0.5-0.6-1.3-1-2.3-1c-1.4,0-2.3,0.7-2.7,2.1
				c-0.2,0.8-0.3,1.7-0.3,2.7c0,3.1,1,4.6,3,4.6C595.6,400.6,596.6,399,596.6,395.9z"/>
			<path class="st3" d="M609.8,391.7v-6.4l2-0.2v16.8h-2V400c-0.8,1.4-1.9,2.1-3.4,2.1c-1.7,0-2.9-0.6-3.6-1.8
				c-0.8-1.2-1.1-2.7-1.1-4.5c0-2.2,0.6-3.8,1.7-4.9c0.8-0.8,1.8-1.2,3.1-1.2c0.9,0,1.6,0.2,2.2,0.5
				C609.2,390.6,609.6,391.1,609.8,391.7z M609.8,395.9c0-1.8-0.3-3.1-0.8-3.7c-0.5-0.6-1.3-1-2.3-1c-1.4,0-2.3,0.7-2.7,2.1
				c-0.2,0.8-0.3,1.7-0.3,2.7c0,3.1,1,4.6,3,4.6C608.8,400.6,609.8,399,609.8,395.9z"/>
			<path class="st3" d="M616.3,391.5V390h5.3v10.3h3.4v1.5H616v-1.5h3.7v-8.8H616.3z M619.4,386.9v-1.1c0-0.3,0.1-0.5,0.4-0.7
				c0.3-0.2,0.6-0.3,0.9-0.3s0.6,0.1,0.9,0.3c0.3,0.2,0.4,0.4,0.4,0.7v1.1c0,0.3-0.1,0.5-0.4,0.7c-0.3,0.2-0.6,0.3-0.9,0.3
				s-0.6-0.1-0.9-0.3C619.5,387.4,619.4,387.2,619.4,386.9z"/>
			<path class="st3" d="M634.5,389.7c2.4,0,3.7,1.5,3.7,4.6v7.5h-2v-7.3c0-0.8,0-1.4-0.1-1.8c-0.1-0.4-0.2-0.7-0.4-0.9
				c-0.4-0.5-1-0.7-1.8-0.7c-0.8,0-1.5,0.2-2.1,0.7c-0.6,0.5-0.9,1.1-0.9,1.9v8h-2V390h1.8l0.1,1.3
				C631.6,390.2,632.8,389.7,634.5,389.7z"/>
			<path class="st3" d="M649.5,399.6c-0.2,0.6-0.7,1.1-1.3,1.6c-0.6,0.4-1.3,0.7-2.1,0.7c-1.5,0-2.7-0.6-3.5-1.7
				c-0.9-1.2-1.3-2.6-1.3-4.2c0-2.2,0.6-3.9,1.7-5c0.8-0.8,1.9-1.2,3.3-1.2s2.5,0.7,3.3,2l0.1-1.6h2c-0.1,1.8-0.1,4.1-0.1,7v3.2
				c0,2.5-0.6,4.3-1.7,5.2c-0.8,0.7-2,1.1-3.6,1.3c-0.8,0.1-1.7,0.1-2.8,0.1l-0.2-1.5c1.6,0,2.7-0.1,3.4-0.3
				c0.7-0.2,1.2-0.4,1.5-0.6c0.3-0.2,0.6-0.5,0.8-0.9c0.4-0.7,0.6-1.7,0.6-3.1V399.6z M648.6,392.1c-0.2-0.3-0.5-0.5-0.9-0.7
				c-0.4-0.2-0.8-0.3-1.3-0.3c-0.5,0-0.9,0.1-1.3,0.3c-0.7,0.3-1.2,0.8-1.4,1.6c-0.3,0.8-0.4,1.5-0.4,2.3c0,0.8,0,1.4,0.1,1.7
				c0.1,0.8,0.4,1.5,0.9,2.1c0.5,0.6,1.1,0.8,2,0.8c1.4,0,2.3-0.6,2.8-1.8c0.3-0.7,0.4-1.4,0.4-2.1s0-1.3-0.1-1.7s-0.2-0.9-0.3-1.3
				C649,392.7,648.8,392.4,648.6,392.1z"/>
		</g>
	</g>
	<g>
		<g>
			<path class="st3" d="M574.6,291.5c0.5-1.2,1.3-1.8,2.5-1.8c1.5,0,2.3,1.1,2.5,3.2c0,0.4,0.1,0.9,0.1,1.4v7.6h-1.8v-7.3
				c0-1.4-0.1-2.3-0.3-2.6c-0.2-0.3-0.4-0.5-0.5-0.6c-0.2-0.1-0.3-0.1-0.5-0.1c-0.6,0-1.1,0.4-1.3,1.1c-0.2,0.5-0.3,1.2-0.3,2.3v7.3
				h-1.6v-7.2c0-1.6-0.2-2.6-0.6-3.1c-0.2-0.2-0.5-0.4-0.8-0.4s-0.7,0.2-0.9,0.5c-0.5,0.6-0.7,1.4-0.7,2.4v7.7h-1.8V290h1.6l0.1,1.6
				c0.2-0.5,0.5-1,0.9-1.4c0.4-0.4,0.8-0.6,1.4-0.6s1,0.2,1.4,0.5S574.4,290.9,574.6,291.5z"/>
			<path class="st3" d="M589.7,293.7c0-1.7-0.7-2.5-2.1-2.5c-0.7,0-1.4,0.1-2.2,0.2c-0.8,0.2-1.4,0.3-1.7,0.5l-0.5-1.4
				c1.5-0.5,2.9-0.7,4.2-0.7c1.3,0,2.3,0.3,3.1,0.9c0.8,0.6,1.2,1.5,1.2,2.8v8.5H590l-0.3-1.4c-0.5,0.5-1,0.9-1.8,1.2
				s-1.4,0.5-2.1,0.5c-1,0-1.8-0.3-2.5-0.9c-0.7-0.6-1-1.4-1-2.5c0-1.1,0.4-1.9,1.3-2.4c0.6-0.4,1.2-0.6,1.9-0.7
				c0.7-0.1,1.5-0.3,2.6-0.4l1.6-0.2V293.7z M589.7,299.2v-3l-1.6,0.2c-1.1,0.2-1.9,0.3-2.3,0.5c-1,0.4-1.4,1-1.4,1.8
				c0,0.6,0.2,1.1,0.5,1.4c0.3,0.4,0.8,0.5,1.4,0.5C587.6,300.7,588.8,300.2,589.7,299.2z"/>
			<path class="st3" d="M599.6,301.8h-2V290h1.6l0.2,2.2c0.5-0.8,1.1-1.5,1.9-1.9c0.8-0.4,1.7-0.6,2.7-0.6h0.9v1.8h-1.2
				c-1.3,0-2.2,0.3-3,0.9c-0.7,0.6-1.1,1.6-1.1,2.8V301.8z"/>
			<path class="st3" d="M616.5,299.6c-0.2,0.6-0.7,1.1-1.3,1.6c-0.6,0.4-1.3,0.7-2.1,0.7c-1.5,0-2.7-0.6-3.5-1.7
				c-0.9-1.2-1.3-2.6-1.3-4.2c0-2.2,0.6-3.9,1.7-5c0.8-0.8,1.9-1.2,3.3-1.2s2.5,0.7,3.3,2l0.1-1.6h2c-0.1,1.8-0.1,4.1-0.1,7v3.2
				c0,2.5-0.6,4.3-1.7,5.2c-0.8,0.7-2,1.1-3.6,1.3c-0.8,0.1-1.7,0.1-2.8,0.1l-0.2-1.5c1.6,0,2.7-0.1,3.4-0.3
				c0.7-0.2,1.2-0.4,1.5-0.6c0.3-0.2,0.6-0.5,0.8-0.9c0.4-0.7,0.6-1.7,0.6-3.1V299.6z M615.6,292.1c-0.2-0.3-0.5-0.5-0.9-0.7
				c-0.4-0.2-0.8-0.3-1.3-0.3s-0.9,0.1-1.3,0.3c-0.7,0.3-1.2,0.8-1.4,1.6s-0.4,1.5-0.4,2.3c0,0.8,0,1.4,0.1,1.7
				c0.1,0.8,0.4,1.5,0.9,2.1c0.5,0.6,1.1,0.8,2,0.8c1.4,0,2.3-0.6,2.8-1.8c0.3-0.7,0.4-1.4,0.4-2.1s0-1.3-0.1-1.7s-0.2-0.9-0.3-1.3
				C616,292.7,615.8,292.4,615.6,292.1z"/>
			<path class="st3" d="M622.9,291.5V290h5.3v10.3h3.4v1.5h-9.1v-1.5h3.7v-8.8H622.9z M626,286.9v-1.1c0-0.3,0.1-0.5,0.4-0.7
				c0.3-0.2,0.6-0.3,0.9-0.3c0.3,0,0.6,0.1,0.9,0.3c0.3,0.2,0.4,0.4,0.4,0.7v1.1c0,0.3-0.1,0.5-0.4,0.7c-0.3,0.2-0.6,0.3-0.9,0.3
				c-0.3,0-0.6-0.1-0.9-0.3C626.1,287.4,626,287.2,626,286.9z"/>
			<path class="st3" d="M641.1,289.7c2.4,0,3.7,1.5,3.7,4.6v7.5h-2v-7.3c0-0.8,0-1.4-0.1-1.8c-0.1-0.4-0.2-0.7-0.4-0.9
				c-0.4-0.5-1-0.7-1.8-0.7c-0.8,0-1.5,0.2-2.1,0.7c-0.6,0.5-0.9,1.1-0.9,1.9v8h-2V290h1.8l0.1,1.3
				C638.2,290.2,639.4,289.7,641.1,289.7z"/>
		</g>
	</g>
	<g>
		<g>
			<path class="st2" d="M533.2,199.8v-16.1h-5.5v-1.3h12.5v1.3h-5.5v16.1H533.2z"/>
			<path class="st2" d="M542.1,199.8V182l1.5-0.1v6.1c0,0.2,0,0.3,0,0.3s0,0.1,0,0.1s0,0.1,0,0.1s0,0.2,0,0.4c1-1.5,2.5-2.2,4.5-2.2
				c2.8,0,4.2,1.7,4.2,5.1v8h-1.4v-7.7c0-1.4-0.2-2.5-0.7-3.1s-1.2-1-2.4-1c-1.1,0-2,0.3-2.8,0.9s-1.2,1.3-1.4,2.3
				c0,0.3,0,0.8,0,1.4v7.3H542.1z"/>
			<path class="st2" d="M560.7,200.1c-1.8,0-3.2-0.6-4.2-1.8s-1.6-2.8-1.6-4.8c0-2,0.5-3.6,1.5-4.8s2.3-1.9,4-1.9
				c1.5,0,2.7,0.5,3.6,1.6s1.4,2.5,1.4,4.3c0,0.1,0,0.2,0,0.4s0,0.4,0,0.5h-8.9c0,1.6,0.4,3,1.2,3.9s1.8,1.4,3.1,1.4
				c0.8,0,1.6-0.1,2.2-0.3s1.3-0.5,1.9-0.8l0.2,1.1C563.8,199.7,562.4,200.1,560.7,200.1z M556.5,192.4h7.3c0-1.4-0.3-2.5-0.9-3.3
				s-1.5-1.1-2.5-1.1c-1.1,0-2,0.4-2.6,1.2S556.7,191.1,556.5,192.4z"/>
			<path class="st2" d="M574.2,199.8v-17.4h4.8c2.2,0,3.7,0.4,4.7,1.1s1.5,1.8,1.5,3.3c0,0.2,0,0.3,0,0.4s0,0.3-0.1,0.5
				s-0.1,0.5-0.1,0.6s-0.2,0.4-0.3,0.6s-0.3,0.5-0.5,0.7s-0.5,0.4-0.8,0.6s-0.7,0.3-1.1,0.5c1.2,0.2,2.2,0.7,2.8,1.5s1,1.7,1,2.8
				c0,1.5-0.5,2.7-1.5,3.6s-2.5,1.3-4.5,1.3H574.2z M575.7,190.1h4c0.6,0,1.1,0,1.6-0.1s0.8-0.3,1.2-0.5s0.6-0.6,0.8-1
				s0.3-1,0.3-1.6c0-1.2-0.4-2.1-1.1-2.5s-1.9-0.7-3.6-0.7h-3.2V190.1z M575.7,198.6h4c3.2,0,4.7-1.2,4.7-3.7c0-1.4-0.4-2.3-1.3-2.8
				s-2.2-0.8-4.1-0.8h-3.3V198.6z"/>
			<path class="st2" d="M593.8,200.1c-1.2,0-2.2-0.3-3.1-0.9s-1.6-1.4-2-2.4s-0.7-2.1-0.7-3.4c0-1,0.1-1.8,0.4-2.7s0.7-1.5,1.2-2.1
				s1.1-1.1,1.9-1.4s1.6-0.5,2.5-0.5c1.2,0,2.2,0.3,3.1,0.9s1.5,1.4,2,2.4s0.7,2.1,0.7,3.4c0,1.3-0.2,2.4-0.7,3.4s-1.1,1.8-2,2.4
				S595,200.1,593.8,200.1z M593.9,198.9c0.9,0,1.7-0.2,2.4-0.7s1.1-1.2,1.4-2s0.4-1.7,0.4-2.8c0-1.7-0.4-3-1.1-4s-1.8-1.5-3.2-1.5
				c-0.9,0-1.7,0.3-2.4,0.8s-1.1,1.2-1.4,2s-0.5,1.8-0.5,2.8c0,1.6,0.4,2.9,1.1,3.9S592.5,198.9,593.9,198.9z"/>
			<path class="st2" d="M600.9,199.8l4.8-6.5l-4.6-6.3h1.6l3.8,5.3l3.7-5.3h1.7l-4.6,6.4l4.7,6.5h-1.6l-3.9-5.4l-3.9,5.4H600.9z"/>
			<path class="st2" d="M619.9,199.8v-17.4h2.1l6.5,14.7l6.3-14.7h2v17.4h-1.5v-11.7l0.1-4l-0.4,1.4l-5.7,13.3h-1.6l-5.8-13.3
				l-0.5-1.4l0.1,4.1v11.7H619.9z"/>
			<path class="st2" d="M645.9,200.1c-1.2,0-2.2-0.3-3.1-0.9s-1.6-1.4-2-2.4s-0.7-2.1-0.7-3.4c0-1,0.1-1.8,0.4-2.7s0.7-1.5,1.2-2.1
				s1.1-1.1,1.9-1.4s1.6-0.5,2.5-0.5c1.2,0,2.2,0.3,3.1,0.9s1.5,1.4,2,2.4s0.7,2.1,0.7,3.4c0,1.3-0.2,2.4-0.7,3.4s-1.1,1.8-2,2.4
				S647.1,200.1,645.9,200.1z M646,198.9c0.9,0,1.7-0.2,2.4-0.7s1.1-1.2,1.4-2s0.4-1.7,0.4-2.8c0-1.7-0.4-3-1.1-4s-1.8-1.5-3.2-1.5
				c-0.9,0-1.7,0.3-2.4,0.8s-1.1,1.2-1.4,2s-0.5,1.8-0.5,2.8c0,1.6,0.4,2.9,1.1,3.9S644.6,198.9,646,198.9z"/>
			<path class="st2" d="M659.4,200.1c-1.7,0-3-0.6-4-1.8s-1.4-2.8-1.4-4.9c0-2,0.5-3.6,1.5-4.8s2.3-1.8,3.9-1.8
				c0.8,0,1.6,0.2,2.4,0.5s1.4,0.9,1.8,1.6v-0.4V182l1.4-0.1v18h-1.2l-0.2-1.9c-0.4,0.7-1,1.3-1.8,1.6S660.2,200.1,659.4,200.1z
				 M659.4,198.9c0.7,0,1.4-0.1,1.9-0.4s1-0.6,1.3-1.1s0.6-1,0.7-1.7s0.2-1.3,0.2-2.1c0-3.8-1.4-5.7-4.2-5.7c-0.7,0-1.2,0.2-1.8,0.5
				s-0.9,0.7-1.2,1.3s-0.5,1.1-0.7,1.7s-0.2,1.3-0.2,2c0,0.6,0,1.2,0.1,1.7s0.2,1,0.4,1.5s0.4,0.9,0.7,1.2s0.7,0.6,1.1,0.8
				S658.9,198.9,659.4,198.9z"/>
			<path class="st2" d="M673.7,200.1c-1.8,0-3.2-0.6-4.2-1.8s-1.6-2.8-1.6-4.8c0-2,0.5-3.6,1.5-4.8s2.3-1.9,4-1.9
				c1.5,0,2.7,0.5,3.6,1.6s1.4,2.5,1.4,4.3c0,0.1,0,0.2,0,0.4s0,0.4,0,0.5h-8.9c0,1.6,0.4,3,1.2,3.9s1.8,1.4,3.1,1.4
				c0.8,0,1.6-0.1,2.2-0.3s1.3-0.5,1.9-0.8l0.2,1.1C676.7,199.7,675.3,200.1,673.7,200.1z M669.5,192.4h7.3c0-1.4-0.3-2.5-0.9-3.3
				s-1.5-1.1-2.5-1.1c-1.1,0-2,0.4-2.6,1.2S669.6,191.1,669.5,192.4z"/>
			<path class="st2" d="M684.5,200.1c-1.1,0-1.9-0.2-2.4-0.7s-0.8-1.3-0.8-2.4v-15l1.4-0.1v15c0,0.8,0.1,1.3,0.4,1.6
				s0.7,0.4,1.3,0.4c0.5,0,1.1-0.1,1.8-0.3l0.1,1.1C685.6,200,685,200.1,684.5,200.1z"/>
		</g>
	</g>
	<g>
		<path class="st34" d="M571.2,591.7c0.8-1.3,2-2,3.6-2s2.8,0.6,3.5,1.7c0.7,1.1,1.1,2.6,1.1,4.3c0,2.3-0.5,4-1.6,5.1
			c-0.8,0.8-1.8,1.2-3.2,1.2c-0.9,0-1.6-0.2-2-0.5c-0.5-0.3-0.9-0.8-1.4-1.4l0,1.6h-1.9v-16.6l2-0.2V591.7z M571.3,597.3
			c0.1,1,0.4,1.8,0.9,2.4c0.5,0.6,1.2,0.9,2.2,0.9c1.3,0,2.2-0.7,2.7-2.1c0.2-0.7,0.4-1.5,0.4-2.3s0-1.4-0.1-1.8
			c-0.1-1-0.4-1.8-0.8-2.4s-1.2-0.9-2.1-0.9c-1.6,0-2.6,0.8-2.9,2.3c-0.2,0.6-0.2,1.3-0.2,2.1S571.2,596.9,571.3,597.3z"/>
		<path class="st34" d="M591,591.4c0.9,1.1,1.3,2.6,1.3,4.5s-0.5,3.3-1.4,4.5s-2.2,1.7-3.8,1.7c-0.8,0-1.6-0.2-2.3-0.5
			c-0.7-0.3-1.2-0.8-1.6-1.3c-0.8-1.1-1.2-2.6-1.2-4.4s0.5-3.3,1.4-4.4c0.9-1.1,2.2-1.7,3.8-1.7S590.2,590.3,591,591.4z
			 M587.2,600.6c1.4,0,2.3-0.7,2.8-2c0.3-0.7,0.4-1.5,0.4-2.2s0-1.4-0.1-1.8c-0.1-1-0.4-1.8-0.9-2.4c-0.5-0.6-1.2-0.9-2.2-0.9
			c-1.3,0-2.2,0.7-2.7,2.1c-0.3,0.7-0.4,1.5-0.4,2.3c0,1.4,0.2,2.6,0.7,3.6S586,600.6,587.2,600.6z"/>
		<path class="st34" d="M599.6,601.8h-2V590h1.6l0.2,2.2c0.5-0.8,1.1-1.5,1.9-1.9c0.8-0.4,1.7-0.6,2.7-0.6h0.9v1.8h-1.2
			c-1.3,0-2.2,0.3-3,0.9s-1.1,1.6-1.1,2.8V601.8z"/>
		<path class="st34" d="M616.4,591.7v-6.4l2-0.2v16.8h-2V600c-0.8,1.4-1.9,2.1-3.4,2.1c-1.7,0-2.9-0.6-3.6-1.8
			c-0.8-1.2-1.1-2.7-1.1-4.5c0-2.2,0.6-3.8,1.7-4.9c0.8-0.8,1.8-1.2,3.1-1.2c0.9,0,1.6,0.2,2.2,0.5S616.2,591.1,616.4,591.7z
			 M616.4,595.9c0-1.8-0.3-3.1-0.8-3.7c-0.5-0.6-1.3-1-2.3-1c-1.4,0-2.3,0.7-2.7,2.1c-0.2,0.8-0.3,1.7-0.3,2.7c0,3.1,1,4.6,3,4.6
			C615.4,600.6,616.4,599,616.4,595.9z"/>
		<path class="st34" d="M624.6,601.3c-0.8-0.5-1.4-1.3-1.8-2.2s-0.6-2-0.6-3.1c0-1.2,0.2-2.2,0.6-3.1s0.9-1.7,1.7-2.2
			s1.5-0.9,2.4-0.9c1.7,0,2.9,0.6,3.7,1.7s1.2,2.5,1.2,4.2v0.7h-7.5c0,1.2,0.3,2.2,0.9,3.1c0.6,0.8,1.4,1.3,2.5,1.3
			c0.8-0.1,1.8-0.5,3.1-1.2l0.6,1.3c-0.9,0.9-2.2,1.4-3.8,1.4C626.4,602.1,625.4,601.8,624.6,601.3z M629.7,594.8
			c-0.1-2.4-1-3.6-2.5-3.6c-1.7,0-2.7,1.2-3,3.6H629.7z"/>
		<path class="st34" d="M639.2,601.8h-2V590h1.6l0.2,2.2c0.5-0.8,1.1-1.5,1.9-1.9c0.8-0.4,1.7-0.6,2.7-0.6h0.9v1.8h-1.2
			c-1.3,0-2.2,0.3-3,0.9s-1.1,1.6-1.1,2.8V601.8z"/>
	</g>
</g>
</svg>
