<?xml version="1.0" encoding="utf-8"?>
<!-- Generator: Adobe Illustrator 19.2.0, SVG Export Plug-In . SVG Version: 6.00 Build 0)  -->
<svg version="1.1" xmlns="http://www.w3.org/2000/svg" xmlns:xlink="http://www.w3.org/1999/xlink" x="0px" y="0px"
	 viewBox="0 0 1214 941" style="enable-background:new 0 0 1214 941;" xml:space="preserve">
<style type="text/css">
	.st0{opacity:0.2;fill:#4E768D;}
	.st1{fill:#52B1DB;}
	.st2{fill:#FFFFFF;}
	.st3{fill:#7A98A9;}
	.st4{fill:#D7F6F0;}
	.st5{fill:#B0EDE1;}
	.st6{fill:#88E3D2;}
	.st7{fill:#61DAC3;}
	.st8{fill:#39D1B4;}
	.st9{fill:#37C2AA;}
	.st10{fill:#34B3A0;}
	.st11{fill:#1A7B72;}
	.st12{fill:#004444;}
	.st13{fill:#FBBDBD;}
	.st14{fill:#FA9C9D;}
	.st15{fill:#F87B7C;}
	.st16{fill:#F65A5B;}
	.st17{fill:#C64748;}
	.st18{fill:#963435;}
	.st19{fill:#652022;}
	.st20{fill:#350D0F;}
	.st21{fill:#BAE0F1;}
	.st22{fill:#97D0E9;}
	.st23{fill:#75C1E2;}
	.st24{fill:#4292B4;}
	.st25{fill:#32728D;}
	.st26{fill:#215366;}
	.st27{fill:#11333F;}
	.st28{fill:#FDDEDE;}
	.st29{fill:#DCEFF8;}
	.st30{fill:#A7BBC6;}
	.st31{fill:#4E768D;}
	.st32{fill:#225470;}
	.st33{fill:#214A63;}
	.st34{fill:#204056;}
	.st35{fill:#163142;}
	.st36{fill:#0D222D;}
	.st37{fill:#D3DDE2;}
	.st38{fill:none;stroke:#4E768D;stroke-miterlimit:10;}
	.st39{opacity:0.5;fill:#4E768D;}
	.st40{opacity:0.25;fill:#4E768D;}
</style>
<g id="BG">
</g>
<g id="CONTENTS">
	<g>
		<path class="st1" d="M504.3,420.9v9.7h-2.7v-9.4c0-2-0.3-3.4-0.8-4.1c-0.5-0.7-1.3-1.1-2.4-1.1c-1.1,0-2,0.4-2.8,1.1
			s-1.2,1.6-1.2,2.4v10.9h-2.7v-22.6l2.7-0.3v8.8c1.2-1.6,2.9-2.4,5-2.4C502.6,414,504.3,416.3,504.3,420.9z"/>
		<path class="st1" d="M510.5,411.7c1.3-0.5,3-1.5,4.9-3h2.8v19.7h4.6v2.1h-12.3v-2.1h4.9v-16.8c-0.3,0.2-1,0.6-2.1,1.2
			s-2.1,1.1-2.9,1.5V411.7z"/>
		<path class="st2" d="M550.5,423.9c0-1.1-0.4-2-1.2-2.7s-1.8-1-3.1-1.1v-2c1.3-0.1,2.3-0.4,3.1-1.1s1.2-1.5,1.2-2.7v-3.4
			c0-1.9,0.4-3.3,1.2-4.2s2.1-1.3,4-1.3h0l3.3,0v2h-3.3c-0.6,0-1.1,0.2-1.5,0.6s-0.5,1.4-0.5,2.9v3.5c0,1.6-0.5,2.7-1.4,3.4
			c-0.5,0.4-1.2,0.8-2.2,1.1c1.5,0.6,2.5,1.2,3,1.9s0.6,1.6,0.6,2.6v3.5c0,1.5,0.2,2.4,0.5,2.9s0.8,0.7,1.5,0.7h3.3v2l-3.3,0h0
			c-1.9,0-3.2-0.4-4-1.3s-1.2-2.3-1.2-4.2V423.9z"/>
		<path class="st3" d="M539.7,479.5c-1,0.9-2.5,1.4-4.4,1.4c-1.2,0-2.3-0.2-3.3-0.7s-1.8-1.1-2.4-1.9c-1.3-1.6-2-3.6-2-5.9
			c0-1.5,0.3-2.9,0.9-4.1s1.5-2.3,2.7-3.1s2.7-1.2,4.4-1.2s3.1,0.5,4.1,1.4l-0.7,1.8c-1.1-0.8-2.4-1.1-3.8-1.1s-2.6,0.6-3.5,1.8
			s-1.4,2.8-1.4,4.6s0.5,3.4,1.4,4.6s2.1,1.8,3.6,1.8s2.7-0.4,3.8-1.2L539.7,479.5z"/>
		<path class="st3" d="M557.2,466.4c1.2,1.6,1.7,3.6,1.7,6.1c0,2.5-0.6,4.6-1.9,6.1s-3,2.3-5.1,2.3c-1.2,0-2.2-0.2-3.1-0.7
			s-1.6-1-2.2-1.8c-1.1-1.6-1.7-3.6-1.7-6.1c0-2.5,0.6-4.5,1.9-6.1s3-2.3,5.2-2.3S556.1,464.8,557.2,466.4z M552,478.9
			c1.9,0,3.1-0.9,3.8-2.8c0.4-1,0.5-2,0.5-3.1s0-1.9-0.1-2.5c-0.2-1.3-0.6-2.4-1.3-3.3s-1.7-1.3-3-1.3c-1.8,0-3.1,0.9-3.7,2.8
			c-0.4,1-0.5,2.1-0.5,3.2c0,2,0.3,3.6,0.9,4.9S550.4,478.9,552,478.9z"/>
		<path class="st3" d="M576.2,480.6h-2.1c-1.9,0-3.2-0.2-4-0.6c-0.5-0.2-0.8-0.5-1.1-0.8c-0.7-0.8-1.1-2.4-1.1-5v-14.5H563v-2.1h7.5
			v16.4c0,1.9,0.2,3.1,0.5,3.6s0.8,0.7,1.3,0.8s1.1,0.1,1.6,0.1h2.4L576.2,480.6z"/>
		<path class="st3" d="M593.2,466.4c1.2,1.6,1.7,3.6,1.7,6.1c0,2.5-0.6,4.6-1.9,6.1s-3,2.3-5.1,2.3c-1.2,0-2.2-0.2-3.1-0.7
			s-1.6-1-2.2-1.8c-1.1-1.6-1.7-3.6-1.7-6.1c0-2.5,0.6-4.5,1.9-6.1s3-2.3,5.2-2.3S592.1,464.8,593.2,466.4z M588,478.9
			c1.9,0,3.1-0.9,3.8-2.8c0.4-1,0.5-2,0.5-3.1s0-1.9-0.1-2.5c-0.2-1.3-0.6-2.4-1.3-3.3s-1.7-1.3-3-1.3c-1.8,0-3.1,0.9-3.7,2.8
			c-0.4,1-0.5,2.1-0.5,3.2c0,2,0.3,3.6,0.9,4.9S586.4,478.9,588,478.9z"/>
		<path class="st3" d="M605,480.6h-2.7v-16.1h2.2l0.2,3c0.7-1.1,1.5-2,2.6-2.6s2.3-0.9,3.6-0.9h1.3v2.5h-1.7c-1.7,0-3.1,0.4-4.1,1.3
			s-1.5,2.1-1.5,3.9V480.6z"/>
		<path class="st3" d="M626.5,468.4h-4.4V464h4.4V468.4z M626.5,478.5h-4.4V474h4.4V478.5z"/>
		<path class="st2" d="M659,480.6h-2.7v-16.1h2.2l0.2,3c0.7-1.1,1.5-2,2.6-2.6s2.3-0.9,3.6-0.9h1.3v2.5h-1.7c-1.7,0-3.1,0.4-4.1,1.3
			s-1.5,2.1-1.5,3.9V480.6z"/>
		<path class="st2" d="M675,479.8c-1.1-0.7-2-1.8-2.5-3s-0.8-2.7-0.8-4.3c0-1.6,0.3-3,0.8-4.3s1.3-2.3,2.3-3.1s2.1-1.2,3.3-1.2
			c2.3,0,3.9,0.8,5,2.3s1.6,3.5,1.6,5.7v0.9h-10.2c0.1,1.7,0.5,3.1,1.2,4.2s1.9,1.7,3.4,1.7c1-0.1,2.5-0.7,4.3-1.7l0.9,1.8
			c-1.3,1.3-3,1.9-5.2,1.9C677.5,480.9,676.1,480.6,675,479.8z M682,471c-0.2-3.3-1.3-4.9-3.5-4.9c-2.4,0-3.7,1.6-4.1,4.9H682z"/>
		<path class="st2" d="M699.9,466.7v-8.8l2.7-0.3v22.9h-2.7v-2.5c-1.1,1.9-2.6,2.9-4.6,2.9c-2.3,0-3.9-0.8-4.9-2.4s-1.5-3.7-1.5-6.1
			c0-2.9,0.8-5.2,2.3-6.7c1.1-1.1,2.5-1.6,4.2-1.6c1.2,0,2.2,0.2,3,0.7S699.5,465.9,699.9,466.7z M699.9,472.4
			c0-2.5-0.4-4.2-1.1-5.1s-1.8-1.3-3.2-1.3c-1.9,0-3.1,0.9-3.7,2.8c-0.3,1-0.5,2.3-0.5,3.7c0,4.2,1.4,6.3,4.1,6.3
			C698.4,478.9,699.9,476.7,699.9,472.4z"/>
		<path class="st2" d="M711,485.2l1.1-8.8h4l-2.5,8.8H711z M716.4,468.3H712v-4.4h4.4V468.3z"/>
		<path class="st2" d="M500.6,514.5c0,1.1,0.4,2,1.2,2.7s1.8,1,3.1,1.1v2c-1.2,0.1-2.3,0.4-3.1,1.1s-1.2,1.5-1.2,2.7v3.4
			c0,1.9-0.4,3.3-1.2,4.2s-2.1,1.3-4,1.3h0l-3.4,0v-2h3.4c1,0,1.6-0.5,1.9-1.5c0.1-0.5,0.1-1.2,0.1-2.1v-3.5c0-1.4,0.3-2.4,0.9-3
			s1.5-1.1,2.7-1.6c-1.6-0.6-2.5-1.3-3-2s-0.6-1.6-0.6-2.6v-3.5c0-1.2-0.1-2-0.2-2.3s-0.3-0.5-0.4-0.7c-0.3-0.3-0.7-0.5-1.4-0.5
			h-3.4v-2l3.4,0h0c1.9,0,3.2,0.4,4,1.3s1.2,2.3,1.2,4.2V514.5z"/>
	</g>
	<g>
		<path class="st3" d="M328,481.5V463h1.3l0.1,1.8c0.6-0.7,1.2-1.2,1.8-1.5s1.3-0.5,2.2-0.5c1.8,0,3.2,0.6,4.1,1.8s1.4,2.9,1.4,5
			c0,1.9-0.5,3.5-1.4,4.7s-2.3,1.8-3.9,1.8c-0.8,0-1.6-0.2-2.4-0.6s-1.3-0.9-1.8-1.6c0,1,0.1,1.9,0.1,2.8v4.7L328,481.5z
			 M333.4,474.9c0.7,0,1.3-0.2,1.8-0.5s0.9-0.7,1.2-1.3s0.5-1.1,0.7-1.7c0.2-0.6,0.2-1.3,0.2-2c0-0.7-0.1-1.3-0.2-2
			s-0.4-1.2-0.7-1.7s-0.7-1-1.2-1.3s-1.1-0.5-1.8-0.5c-0.7,0-1.4,0.1-1.9,0.4s-0.9,0.6-1.3,1.1s-0.5,1-0.7,1.7s-0.2,1.3-0.2,2.1
			c0,0.9,0.1,1.7,0.2,2.3c0.1,0.7,0.3,1.3,0.7,1.8s0.7,0.9,1.2,1.2S332.7,474.9,333.4,474.9z"/>
		<path class="st3" d="M341.8,475.8c0-7.5,0-11.8,0-12.8h1.2l0.1,2.5c0.5-0.8,1-1.4,1.8-1.9s1.5-0.7,2.2-0.7c0.3,0,0.7,0,1,0.1
			l-0.1,1.2c-0.3,0-0.6-0.1-0.9-0.1c-1.1,0-2,0.4-2.7,1.3s-1.1,1.9-1.1,3v7.4H341.8z"/>
		<path class="st3" d="M355.1,476.1c-1.2,0-2.2-0.3-3.1-0.9s-1.6-1.4-2-2.4s-0.7-2.1-0.7-3.4c0-1,0.1-1.8,0.4-2.7s0.7-1.5,1.2-2.1
			s1.1-1.1,1.9-1.4s1.6-0.5,2.5-0.5c1.2,0,2.2,0.3,3.1,0.9s1.5,1.4,2,2.4s0.7,2.1,0.7,3.4c0,1.3-0.2,2.4-0.7,3.4s-1.1,1.8-2,2.4
			S356.3,476.1,355.1,476.1z M355.2,474.9c0.9,0,1.7-0.2,2.4-0.7s1.1-1.2,1.4-2s0.4-1.7,0.4-2.8c0-1.7-0.4-3-1.1-4s-1.8-1.5-3.2-1.5
			c-0.9,0-1.7,0.3-2.4,0.8s-1.1,1.2-1.4,2s-0.5,1.8-0.5,2.8c0,1.6,0.4,2.9,1.1,3.9S353.8,474.9,355.2,474.9z"/>
		<path class="st3" d="M363.8,481.5V463h1.3l0.1,1.8c0.6-0.7,1.2-1.2,1.8-1.5s1.3-0.5,2.2-0.5c1.8,0,3.2,0.6,4.1,1.8s1.4,2.9,1.4,5
			c0,1.9-0.5,3.5-1.4,4.7s-2.3,1.8-3.9,1.8c-0.8,0-1.6-0.2-2.4-0.6s-1.3-0.9-1.8-1.6c0,1,0.1,1.9,0.1,2.8v4.7L363.8,481.5z
			 M369.3,474.9c0.7,0,1.3-0.2,1.8-0.5s0.9-0.7,1.2-1.3s0.5-1.1,0.7-1.7c0.2-0.6,0.2-1.3,0.2-2c0-0.7-0.1-1.3-0.2-2
			s-0.4-1.2-0.7-1.7s-0.7-1-1.2-1.3s-1.1-0.5-1.8-0.5c-0.7,0-1.4,0.1-1.9,0.4s-0.9,0.6-1.3,1.1s-0.5,1-0.7,1.7s-0.2,1.3-0.2,2.1
			c0,0.9,0.1,1.7,0.2,2.3c0.1,0.7,0.3,1.3,0.7,1.8s0.7,0.9,1.2,1.2S368.6,474.9,369.3,474.9z"/>
		<path class="st3" d="M382.8,476.1c-1.8,0-3.2-0.6-4.2-1.8s-1.6-2.8-1.6-4.8c0-2,0.5-3.6,1.5-4.8s2.3-1.9,4-1.9
			c1.5,0,2.7,0.5,3.6,1.6s1.4,2.5,1.4,4.3c0,0.1,0,0.2,0,0.4s0,0.4,0,0.5h-8.9c0,1.6,0.4,3,1.2,3.9s1.8,1.4,3.1,1.4
			c0.8,0,1.6-0.1,2.2-0.3s1.3-0.5,1.9-0.8l0.2,1.1C385.9,475.7,384.5,476.1,382.8,476.1z M378.6,468.4h7.3c0-1.4-0.3-2.5-0.9-3.3
			s-1.5-1.1-2.5-1.1c-1.1,0-2,0.4-2.6,1.2S378.8,467.1,378.6,468.4z"/>
		<path class="st3" d="M390.4,475.8c0-7.5,0-11.8,0-12.8h1.2l0.1,2.5c0.5-0.8,1-1.4,1.8-1.9s1.5-0.7,2.2-0.7c0.3,0,0.7,0,1,0.1
			l-0.1,1.2c-0.3,0-0.6-0.1-0.9-0.1c-1.1,0-2,0.4-2.7,1.3s-1.1,1.9-1.1,3v7.4H390.4z"/>
		<path class="st3" d="M402.4,476.1c-1.1,0-1.9-0.2-2.4-0.7s-0.8-1.3-0.8-2.4V464h-1.8l0.1-0.9l1.7-0.2l0.4-2.9l1-0.1v3h3.8v1.1
			h-3.8v8.6c0,0.9,0.1,1.5,0.4,1.8s0.8,0.5,1.6,0.5c0.5,0,1.1-0.1,1.8-0.3l0.1,1.1C403.7,476,402.9,476.1,402.4,476.1z"/>
		<path class="st3" d="M406.2,481.9c-0.3,0-0.7,0-1-0.1l-0.1-1.2c0,0,0.1,0,0.3,0s0.4,0,0.5,0c1,0,1.7-0.2,2.2-0.5s0.9-1,1.3-2
			c0-0.1,0.2-0.5,0.4-1s0.4-1,0.5-1.3l-5.1-12.9h1.5l4.4,11.6l0.5-1.6c2.1-6.7,3.2-10.1,3.3-10.1c0,0,0,0,0,0.1h1.5
			c-3.4,9.6-5.2,14.6-5.4,15.1c-0.5,1.3-1.2,2.3-1.9,2.9S407.4,481.9,406.2,481.9z"/>
	</g>
	<g>
		<path class="st2" d="M800.2,475.8l-3.7-9.6h1.2l2.2,6.1c0.1,0.4,0.3,0.8,0.4,1.2s0.3,0.8,0.4,1l0.1,0.4c0.1-0.4,0.3-0.8,0.4-1.2
			s0.3-0.9,0.5-1.3c0.2-0.5,0.4-1.3,0.9-2.3s0.9-2.3,1.4-3.8h1.2l-3.7,9.6H800.2z"/>
		<path class="st2" d="M809,476c-0.9,0-1.6-0.2-2.2-0.7s-0.8-1.1-0.8-2c0-0.5,0.1-0.9,0.3-1.3s0.5-0.7,0.9-0.9s0.9-0.4,1.4-0.5
			s1.1-0.2,1.9-0.3c0.8,0,1.3-0.1,1.7-0.1v-1.1c0-0.7-0.2-1.3-0.5-1.7s-0.9-0.6-1.6-0.6c-1,0-2,0.2-2.9,0.7c0-0.1-0.1-0.2-0.2-0.4
			s-0.1-0.3-0.2-0.5c0.4-0.2,0.8-0.4,1.4-0.6s1.2-0.2,1.7-0.2c1.2,0,2,0.2,2.5,0.7s0.8,1.4,0.8,2.6v6.4h-0.9c0-0.1-0.1-0.4-0.1-0.8
			s-0.1-0.6-0.1-0.6C811.4,475.5,810.4,476,809,476z M809,475.2c0.8,0,1.4-0.2,2-0.7s1-1.1,1.1-1.8V471c-0.8,0.1-1.3,0.1-1.3,0.1
			c-1.4,0.1-2.4,0.4-3,0.7s-0.8,0.9-0.8,1.6c0,0.6,0.2,1,0.5,1.3S808.4,475.2,809,475.2z"/>
		<path class="st2" d="M818.3,476c-0.8,0-1.4-0.2-1.8-0.5s-0.6-1-0.6-1.8v-11.2l1.1-0.1v11.3c0,0.6,0.1,1,0.3,1.2s0.5,0.3,1,0.3
			c0.4,0,0.8-0.1,1.3-0.2l0,0.8C819.1,475.9,818.6,476,818.3,476z"/>
		<path class="st2" d="M824.6,476.1c-0.5,0-1-0.1-1.4-0.2s-0.8-0.3-1.2-0.5s-0.7-0.6-0.9-1s-0.3-1-0.3-1.6v-6.6h1.1v6.6
			c0,0.5,0.1,0.8,0.2,1.2s0.3,0.6,0.6,0.7s0.5,0.3,0.8,0.3s0.6,0.1,1,0.1c0.4,0,0.7,0,1-0.1s0.6-0.2,0.8-0.3s0.5-0.4,0.6-0.7
			s0.2-0.7,0.2-1.1v-6.6h1.1v6.6c0,0.5-0.1,0.9-0.2,1.3s-0.3,0.7-0.6,0.9s-0.5,0.5-0.8,0.6s-0.7,0.3-1,0.3S825,476.1,824.6,476.1z"
			/>
		<path class="st2" d="M834.6,476c-1.3,0-2.4-0.4-3.2-1.3s-1.2-2.1-1.2-3.6c0-1.5,0.4-2.7,1.1-3.6s1.8-1.4,3-1.5
			c1.1,0,2,0.4,2.7,1.2s1,1.9,1,3.3c0,0.1,0,0.2,0,0.3s0,0.3,0,0.3h-6.7c0,1.2,0.3,2.2,0.9,2.9s1.4,1.1,2.3,1.1
			c0.6,0,1.2-0.1,1.6-0.2s0.9-0.4,1.5-0.6l0.2,0.8C836.9,475.7,835.8,476,834.6,476z M831.4,470.3h5.5c0-1.1-0.2-1.9-0.7-2.5
			s-1.1-0.9-1.9-0.9c-0.8,0-1.5,0.3-2,0.9S831.5,469.3,831.4,470.3z"/>
	</g>
	<polyline class="st38" points="476.5,491.5 456.5,491.5 456.5,451.5 476.5,451.5 	"/>
	<line class="st38" x1="456.5" y1="471.5" x2="436.5" y2="471.5"/>
	<g>
		<path class="st1" d="M336.9,426.1c-0.8,0-1.6-0.1-2.3-0.3s-1.3-0.4-1.7-0.7l0.2-1.2c1.3,0.7,2.5,1,3.7,1c2.1,0,3.2-0.8,3.3-2.4
			c0-0.7-0.2-1.2-0.6-1.5s-1.3-0.8-2.6-1.2c-0.7-0.2-1-0.4-1.1-0.4c-2-0.6-3-1.7-3-3.2c0-0.9,0.4-1.7,1.2-2.4s1.9-1,3.2-1
			s2.6,0.3,3.8,0.8l-0.5,1.1c-1.2-0.5-2.3-0.7-3.4-0.7c-0.9,0-1.6,0.2-2.1,0.6s-0.8,1-0.8,1.6c0,0.6,0.2,1,0.5,1.3s1,0.6,2,0.9
			c0.1,0,0.3,0.1,0.6,0.2s0.5,0.2,0.5,0.2c1.4,0.4,2.3,0.9,2.8,1.5s0.8,1.3,0.8,2.3c0,1.1-0.4,2-1.3,2.6S338.3,426.1,336.9,426.1z"
			/>
		<path class="st1" d="M349.4,426.1c-1.8,0-3.2-0.6-4.2-1.8s-1.6-2.8-1.6-4.8c0-2,0.5-3.6,1.5-4.8s2.3-1.9,4-1.9
			c1.5,0,2.7,0.5,3.6,1.6s1.4,2.5,1.4,4.3c0,0.1,0,0.2,0,0.4s0,0.4,0,0.5h-8.9c0,1.6,0.4,3,1.2,3.9s1.8,1.4,3.1,1.4
			c0.8,0,1.6-0.1,2.2-0.3s1.3-0.5,1.9-0.8l0.2,1.1C352.5,425.7,351.1,426.1,349.4,426.1z M345.2,418.4h7.3c0-1.4-0.3-2.5-0.9-3.3
			s-1.5-1.1-2.5-1.1c-1.1,0-2,0.4-2.6,1.2S345.4,417.1,345.2,418.4z"/>
		<path class="st1" d="M360.3,426.1c-1.1,0-1.9-0.2-2.4-0.7s-0.8-1.3-0.8-2.4v-15l1.4-0.1v15c0,0.8,0.1,1.3,0.4,1.6s0.7,0.4,1.3,0.4
			c0.5,0,1.1-0.1,1.8-0.3l0.1,1.1C361.4,426,360.8,426.1,360.3,426.1z"/>
		<path class="st1" d="M369.1,426.1c-1.8,0-3.2-0.6-4.2-1.8s-1.6-2.8-1.6-4.8c0-2,0.5-3.6,1.5-4.8s2.3-1.9,4-1.9
			c1.5,0,2.7,0.5,3.6,1.6s1.4,2.5,1.4,4.3c0,0.1,0,0.2,0,0.4s0,0.4,0,0.5h-8.9c0,1.6,0.4,3,1.2,3.9s1.8,1.4,3.1,1.4
			c0.8,0,1.6-0.1,2.2-0.3s1.3-0.5,1.9-0.8l0.2,1.1C372.2,425.7,370.7,426.1,369.1,426.1z M364.9,418.4h7.3c0-1.4-0.3-2.5-0.9-3.3
			s-1.5-1.1-2.5-1.1c-1.1,0-2,0.4-2.6,1.2S365,417.1,364.9,418.4z"/>
		<path class="st1" d="M382,426.1c-1.2,0-2.3-0.3-3.2-0.9s-1.6-1.4-2-2.4s-0.7-2.1-0.7-3.3c0-0.9,0.1-1.8,0.4-2.6s0.6-1.5,1.1-2.2
			s1.1-1.1,1.9-1.5s1.6-0.5,2.6-0.5c0.6,0,1.2,0.1,1.8,0.2s1.1,0.4,1.4,0.6l-0.5,1.1c-0.8-0.5-1.8-0.7-2.9-0.7
			c-1.3,0-2.4,0.5-3.2,1.5s-1.2,2.4-1.2,4c0,1.6,0.4,2.9,1.2,3.9s1.8,1.5,3.2,1.5c0.9,0,1.9-0.2,3-0.7l0.2,1
			c-0.4,0.3-0.8,0.5-1.4,0.6S382.6,426.1,382,426.1z"/>
		<path class="st1" d="M391.6,426.1c-1.1,0-1.9-0.2-2.4-0.7s-0.8-1.3-0.8-2.4V414h-1.8l0.1-0.9l1.7-0.2l0.4-2.9l1-0.1v3h3.8v1.1
			h-3.8v8.6c0,0.9,0.1,1.5,0.4,1.8s0.8,0.5,1.6,0.5c0.5,0,1.1-0.1,1.8-0.3l0.1,1.1C392.8,426,392.1,426.1,391.6,426.1z"/>
		<path class="st1" d="M401.1,426.1c-1.2,0-2.2-0.3-3.1-0.9s-1.6-1.4-2-2.4s-0.7-2.1-0.7-3.4c0-1,0.1-1.8,0.4-2.7s0.7-1.5,1.2-2.1
			s1.1-1.1,1.9-1.4s1.6-0.5,2.5-0.5c1.2,0,2.2,0.3,3.1,0.9s1.5,1.4,2,2.4s0.7,2.1,0.7,3.4c0,1.3-0.2,2.4-0.7,3.4s-1.1,1.8-2,2.4
			S402.3,426.1,401.1,426.1z M401.2,424.9c0.9,0,1.7-0.2,2.4-0.7s1.1-1.2,1.4-2s0.4-1.7,0.4-2.8c0-1.7-0.4-3-1.1-4s-1.8-1.5-3.2-1.5
			c-0.9,0-1.7,0.3-2.4,0.8s-1.1,1.2-1.4,2s-0.5,1.8-0.5,2.8c0,1.6,0.4,2.9,1.1,3.9S399.8,424.9,401.2,424.9z"/>
		<path class="st1" d="M409.9,425.8c0-7.5,0-11.8,0-12.8h1.2l0.1,2.5c0.5-0.8,1-1.4,1.8-1.9s1.5-0.7,2.2-0.7c0.3,0,0.7,0,1,0.1
			l-0.1,1.2c-0.3,0-0.6-0.1-0.9-0.1c-1.1,0-2,0.4-2.7,1.3s-1.1,1.9-1.1,3v7.4H409.9z"/>
	</g>
	<polyline class="st38" points="476.5,441.5 456.5,441.5 456.5,401.5 476.5,401.5 	"/>
	<line class="st38" x1="456.5" y1="421.5" x2="436.5" y2="421.5"/>
	<polyline class="st38" points="736.5,451.5 756.5,451.5 756.5,491.5 736.5,491.5 	"/>
	<line class="st38" x1="756.5" y1="471.5" x2="776.5" y2="471.5"/>
</g>
</svg>
